<svg xmlns="http://www.w3.org/2000/svg" width="62" height="85" fill="none"><g clip-path="url(#a)"><path fill="url(#b)" d="m61.857 26.48-.191 39.801-.032 7.699c-.032 6.117-5.846 11.052-13.001 11.02l-35.744-.16C5.749 84.792-.032 79.81 0 73.676l.224-47.499c.016-4.951 3.849-9.136 9.087-10.525l.016-2.555v-1.31l43.554.207-.016 3.866c5.223 1.453 9.008 5.654 8.992 10.62Z"/><path fill="url(#c)" d="M56.124 1.773v.351l-.032 4.153-.032 4.073v.495c0 .766-.64 1.39-1.406 1.39h-.335l-2.108-.017-2.316-.016-2.109-.016-2.315-.016-2.14-.032-2.316-.016-2.109-.016-2.331-.016-2.125-.016-2.316-.016-2.108-.031-2.316-.016-2.108-.016-2.332-.016-2.124-.016-2.3-.016-2.108-.016-2.316-.016-2.124-.016-2.316-.016-2.124-.016h-.335c-.767 0-1.39-.64-1.39-1.406v-.367l.064-8.21V1.39C6.197.623 6.836 0 7.618 0h.336l4.44.032 4.44.032 2.124.016 2.316.016 2.108.016 4.424.048 2.316.016 2.108.016 2.316.016 2.108.016L38.97.24l2.108.016 2.316.016 2.109.015L47.85.32l2.109.016 2.316.016 2.124.016h.335c.783.016 1.39.64 1.39 1.406Z"/><path fill="url(#d)" d="m56.124 2.14-.032 4.137-.032 4.073-1.9-.016-2.524-.016-2.316-.016h-2.54l-2.316-.016-2.523-.016-2.316-.016h-2.54l-2.315-.016-2.54-.016-2.3-.016h-2.539l-2.316-.016-2.54-.016-2.315-.016h-2.524l-2.316-.016-2.539-.016-2.316-.016H8.002l-1.869-.016.064-8.21 4.44.017 4.84.032 2.315.016 2.54.015h2.316l4.839.032 2.54.016h2.315l2.54.016 2.3.016 2.539.016h2.316l2.54.016 2.3.016 2.539.016h2.316l2.539.016 1.853.016Z"/><path fill="#F7F9FC" d="M61.81 34.884.177 34.593.047 61.92l61.634.291.13-27.327Z"/><path fill="#FBFCF7" d="M61.821 34.884.188 34.593l-.024 4.919 61.634.291.023-4.919Z"/><path fill="url(#e)" d="m24.213 45.58-3.977-.016.016-3.992-5.478-.017-.016 3.977-3.977-.015-.032 5.462 3.977.016-.016 3.992 5.478.017.016-3.977 3.977.016.032-5.463Z"/><path fill="url(#f)" d="m51.236 46.906-19.708-.096a.961.961 0 0 1-.959-.958v-.447c0-.527.431-.959.959-.959l19.708.096c.527 0 .959.431.959.959v.447a.961.961 0 0 1-.959.958Z"/><path fill="url(#g)" d="m51.22 52.767-19.708-.095a.961.961 0 0 1-.959-.959v-.447c0-.527.432-.958.959-.958l19.708.096c.527 0 .959.43.959.958v.447a.961.961 0 0 1-.959.959Z" opacity=".5"/><path fill="#1A6FB5" d="M6.133 1.773v.351l.032 4.153.032 4.057v.495c0 .766.639 1.39 1.405 1.39h.336l2.124-.017 2.316-.016 2.108-.016 2.316-.016 2.108-.016 2.316-.016 2.108-.016 2.316-.016 2.124-.016 2.316-.016 2.108-.016 2.316-.015 2.108-.016 2.316-.016 2.125-.016 2.315-.016 2.109-.016 2.316-.016 2.108-.016 2.316-.016 2.124-.016h.335c.767 0 1.39-.64 1.39-1.406v-.367C31.368 11.18 7.523.367 7.523.367a1.415 1.415 0 0 0-1.39 1.406Z" opacity=".08"/></g><defs><linearGradient id="b" x1="0" x2="57.139" y1="11.333" y2="90.194" gradientUnits="userSpaceOnUse"><stop stop-color="#6CBCFC"/><stop offset="1" stop-color="#458DFC"/></linearGradient><linearGradient id="c" x1="-629.93" x2="-27.604" y1="-39.931" y2="2.022" gradientUnits="userSpaceOnUse"><stop stop-color="#B0F4FF"/><stop offset=".053" stop-color="#A9F2FF"/><stop offset=".288" stop-color="#8DE8FE"/><stop offset=".525" stop-color="#79E1FD"/><stop offset=".762" stop-color="#6DDDFC"/><stop offset="1" stop-color="#69DCFC"/></linearGradient><linearGradient id="d" x1="6.14" x2="56.126" y1="6.113" y2="6.113" gradientUnits="userSpaceOnUse"><stop stop-color="#B0F4FF"/><stop offset=".053" stop-color="#A9F2FF"/><stop offset=".288" stop-color="#8DE8FE"/><stop offset=".525" stop-color="#79E1FD"/><stop offset=".762" stop-color="#6DDDFC"/><stop offset="1" stop-color="#69DCFC"/></linearGradient><linearGradient id="e" x1="21.978" x2="12.597" y1="43.095" y2="53.912" gradientUnits="userSpaceOnUse"><stop stop-color="#6CBCFC"/><stop offset="1" stop-color="#458DFC"/></linearGradient><linearGradient id="f" x1="52.385" x2="28.887" y1="45.671" y2="45.671" gradientUnits="userSpaceOnUse"><stop stop-color="#6CBCFC"/><stop offset="1" stop-color="#458DFC"/></linearGradient><linearGradient id="g" x1="30.552" x2="52.179" y1="51.532" y2="51.532" gradientUnits="userSpaceOnUse"><stop stop-color="#6CBCFC"/><stop offset="1" stop-color="#458DFC"/></linearGradient><clipPath id="a"><path fill="#fff" d="M0 0h61.857v85H0z"/></clipPath></defs></svg>