<svg xmlns="http://www.w3.org/2000/svg" width="68" height="95" fill="none"><g clip-path="url(#a)"><path fill="url(#b)" d="M67.71 90.448a4.49 4.49 0 0 1-4.485 4.494l-58.005.066a4.495 4.495 0 0 1-4.253-3.034 4.39 4.39 0 0 1-.24-1.443L.634 6.881a4.49 4.49 0 0 1 4.486-4.493l53.262-.058 4.742-.008a4.49 4.49 0 0 1 4.494 4.485l.091 83.641Z"/><path fill="#fff" d="m61.7 89.967-54.963.058a2.41 2.41 0 0 1-2.412-2.413L4.242 9.767a2.41 2.41 0 0 1 2.413-2.413l54.953-.058a2.41 2.41 0 0 1 2.413 2.413l.083 77.846a2.403 2.403 0 0 1-2.404 2.412Z"/><path fill="url(#c)" d="m53.98 13.713-40.087.05a2.413 2.413 0 0 1-2.413-2.404l-.008-6.683a2.413 2.413 0 0 1 2.404-2.413l40.096-.041a2.413 2.413 0 0 1 2.413 2.404l.008 6.683a2.419 2.419 0 0 1-2.413 2.405ZM13.876 3.49c-.647 0-1.177.531-1.177 1.178l.008 6.683c0 .646.53 1.177 1.177 1.177l40.096-.042c.647 0 1.178-.53 1.178-1.177l-.009-6.683c0-.646-.53-1.177-1.177-1.177l-40.096.041Z"/><path fill="url(#d)" d="m52.844 5.116-37.434.041a.743.743 0 0 1-.746-.746V.788c0-.415.331-.747.746-.747L52.836 0c.415 0 .746.332.746.746V4.37a.73.73 0 0 1-.738.747Z"/><path fill="#58D6F4" d="m15.443 5.157 37.368-.041c.431 0 .78-.349.78-.78V2.562l-38.935.041v1.775c0 .43.356.78.787.78ZM28.576 81.212l-3.233-19.567-2.62 8.515-7.495.008a.817.817 0 0 1-.821-.82c0-.457.364-.822.82-.822l6.293-.008 4.32-14.02 3.234 19.617 4.195-13.473 2.23 6.384 5.025-12.18 4.883 19.318 1.841-6.143 5.39-.009c.455 0 .82.365.82.821 0 .456-.365.821-.82.821l-4.171.008-3.192 10.654-5.124-20.263-4.784 11.583-2.015-5.763-4.776 15.339Z"/><path fill="url(#e)" d="m23.021 43.487-10.538.008a3.096 3.096 0 0 1-3.092-3.084l-.017-14.733c0-1.7 1.385-3.093 3.084-3.093l10.538-.008c1.7 0 3.093 1.384 3.093 3.084l.017 14.734c0 1.7-1.385 3.084-3.085 3.092ZM12.45 23.481c-1.21 0-2.189.986-2.189 2.197l.017 14.733c0 1.21.986 2.189 2.197 2.189l10.538-.008c1.21 0 2.189-.987 2.189-2.197l-.017-14.734c0-1.21-.986-2.189-2.197-2.189l-10.538.009Z"/><path fill="url(#f)" d="M17.74 40.66c4.983-.008 6.533-2.885 6.533-2.885a3.62 3.62 0 0 0-.887-.78c-1.31-.854-2.363-1.219-2.802-1.584-.448-.356-.697-.878-.697-.878l-.273.166s-.166-.573-.075-1.443c0 0 .39-.1.68-1.418.464.091 1.011-1.086.754-1.517-.165-.282-.364-.257-.505-.19.14-.59.779-3.848-2.736-3.848-3.516 0-2.878 3.258-2.728 3.847-.141-.066-.34-.091-.506.19-.257.432.298 1.61.763 1.518.29 1.318.688 1.41.688 1.41.1.862-.075 1.442-.075 1.442l-.273-.166s-.25.514-.697.88c-.447.364-1.492.737-2.802 1.591-.382.249-.672.498-.887.78-.009.016 1.55 2.893 6.525 2.885Z"/><path fill="url(#g)" d="m50.556 27.278-20.288.025a.687.687 0 0 1-.689-.689v-.116c0-.381.307-.688.689-.688l20.288-.025c.382 0 .688.307.688.689v.116a.692.692 0 0 1-.688.688Z"/><path fill="url(#h)" d="m43.094 31.142-12.826.016a.687.687 0 0 1-.689-.688v-.116c0-.381.307-.688.689-.688l12.826-.017c.381 0 .688.307.688.688v.116a.687.687 0 0 1-.688.689Z"/><path fill="url(#i)" d="m57.554 35.735-27.278.033a.687.687 0 0 1-.688-.688v-.116c0-.382.307-.688.688-.688l27.278-.034c.381 0 .688.307.688.689v.116a.697.697 0 0 1-.688.688Z" opacity=".6"/><path fill="url(#j)" d="m56.965 48.644-45.502.05a.713.713 0 0 1-.713-.713v-.066c0-.39.315-.713.713-.713l45.502-.05c.39 0 .713.315.713.713v.066a.713.713 0 0 1-.713.713Z" opacity=".6"/><path fill="url(#k)" d="m57.554 40.245-27.278.034a.687.687 0 0 1-.688-.689v-.116c0-.381.307-.688.688-.688l27.278-.033c.381 0 .688.307.688.688v.116a.686.686 0 0 1-.688.688Z" opacity=".6"/></g><defs><linearGradient id="b" x1="-8.654" x2="76.999" y1="34.748" y2="62.578" gradientUnits="userSpaceOnUse"><stop stop-color="#6CBCFC"/><stop offset=".171" stop-color="#5EABFC"/><stop offset=".408" stop-color="#509AFC"/><stop offset=".67" stop-color="#4890FC"/><stop offset="1" stop-color="#458DFC"/></linearGradient><linearGradient id="c" x1="-4.59" x2="56.387" y1="-21.375" y2="7.99" gradientUnits="userSpaceOnUse"><stop stop-color="#CFE9FF"/><stop offset="1" stop-color="#A1D6FB"/></linearGradient><linearGradient id="d" x1="14.654" x2="53.59" y1="2.58" y2="2.58" gradientUnits="userSpaceOnUse"><stop stop-color="#B0F4FF"/><stop offset="1" stop-color="#69DCFC"/></linearGradient><linearGradient id="e" x1="14.77" x2="24.551" y1="29.208" y2="41.834" gradientUnits="userSpaceOnUse"><stop stop-color="#6CBCFC"/><stop offset="1" stop-color="#458DFC"/></linearGradient><linearGradient id="f" x1="13.709" x2="23.49" y1="30.029" y2="42.655" gradientUnits="userSpaceOnUse"><stop stop-color="#B0F4FF"/><stop offset=".099" stop-color="#A1EFFE"/><stop offset=".299" stop-color="#88E7FD"/><stop offset=".509" stop-color="#77E1FD"/><stop offset=".734" stop-color="#6CDDFC"/><stop offset="1" stop-color="#69DCFC"/></linearGradient><linearGradient id="g" x1="29.581" x2="51.24" y1="26.551" y2="26.564" gradientUnits="userSpaceOnUse"><stop stop-color="#6CBCFC"/><stop offset="1" stop-color="#458DFC"/></linearGradient><linearGradient id="h" x1="29.585" x2="43.781" y1="30.404" y2="30.404" gradientUnits="userSpaceOnUse"><stop stop-color="#6CBCFC"/><stop offset="1" stop-color="#458DFC"/></linearGradient><linearGradient id="i" x1="29.589" x2="58.237" y1="35.01" y2="35.01" gradientUnits="userSpaceOnUse"><stop stop-color="#6CBCFC"/><stop offset="1" stop-color="#458DFC"/></linearGradient><linearGradient id="j" x1="10.75" x2="57.676" y1="47.927" y2="47.927" gradientUnits="userSpaceOnUse"><stop stop-color="#6CBCFC"/><stop offset="1" stop-color="#458DFC"/></linearGradient><linearGradient id="k" x1="29.594" x2="58.242" y1="39.519" y2="39.519" gradientUnits="userSpaceOnUse"><stop stop-color="#6CBCFC"/><stop offset="1" stop-color="#458DFC"/></linearGradient><clipPath id="a"><path fill="#fff" d="M.635 0H67.71v95H.635z"/></clipPath></defs></svg>