<svg xmlns="http://www.w3.org/2000/svg" width="92" height="90" fill="none"><g clip-path="url(#a)"><path fill="url(#b)" d="m56.229 43.315-9.08 8.665L8.806 88.566a5.178 5.178 0 0 1-3.59 1.444 5.177 5.177 0 0 1-3.853-1.71c-2.024-2.233-1.76-5.726.569-7.63l45.217-36.843 4.982-4.056 4.098 3.544Z"/><path fill="#3A81D6" fill-opacity=".8" d="m46.752 52.42-8.937 8.522-.824-8.757 4.891-3.984 4.87 4.22Z"/><path fill="url(#c)" d="M92 29.908c0 16.52-13.3 29.918-29.69 29.918-10.331 0-19.432-5.316-24.75-13.387a29.925 29.925 0 0 1-4.941-16.531C32.619 13.387 45.919 0 62.309 0c7.403 0 14.165 2.724 19.36 7.231A29.947 29.947 0 0 1 92 29.908Z"/><path fill="#fff" d="M62.31 53.21c12.775 0 23.132-10.433 23.132-23.302 0-12.87-10.357-23.302-23.132-23.302-12.776 0-23.133 10.433-23.133 23.302S49.534 53.209 62.31 53.209Z"/><path fill="#1A6FB5" fill-opacity=".5" d="M92 29.908c0 16.52-13.3 29.918-29.69 29.918-10.331 0-19.432-5.316-24.75-13.387 33.484-2.745 42.31-31.321 44.12-39.208A29.973 29.973 0 0 1 92 29.908Z" opacity=".06"/><path fill="url(#d)" d="M62.31 29.959c2.684 0 4.86-2.192 4.86-4.896 0-2.704-2.176-4.896-4.86-4.896-2.685 0-4.86 2.192-4.86 4.896 0 2.704 2.165 4.896 4.86 4.896Zm0 2.448c-3.244 0-9.721 1.639-9.721 4.896v1.229c0 .676.549 1.229 1.22 1.229H70.83c.671 0 1.22-.553 1.22-1.23v-1.228c-.02-3.247-6.497-4.896-9.74-4.896Z"/></g><defs><linearGradient id="b" x1="5.676" x2="53.927" y1="84.326" y2="40.781" gradientUnits="userSpaceOnUse"><stop stop-color="#67C3F3"/><stop offset="1" stop-color="#5A98F2"/></linearGradient><linearGradient id="c" x1="50.029" x2="72.79" y1="2.113" y2="52.909" gradientUnits="userSpaceOnUse"><stop stop-color="#67C3F3"/><stop offset="1" stop-color="#5A98F2"/></linearGradient><linearGradient id="d" x1="55.282" x2="72.935" y1="28.395" y2="36.942" gradientUnits="userSpaceOnUse"><stop stop-color="#B0F4FF"/><stop offset=".071" stop-color="#A6F1FF"/><stop offset=".294" stop-color="#8BE8FD"/><stop offset=".521" stop-color="#78E1FD"/><stop offset=".754" stop-color="#6DDDFC"/><stop offset="1" stop-color="#69DCFC"/></linearGradient><clipPath id="a"><path fill="#fff" d="M0 0h92v90H0z"/></clipPath></defs></svg>